ffmpeg started on 2016-12-02 at 10:45:33
Report written to "Output/x264/results/ffmpeg/old_town_cross_2160p50slower15000k.log"
Command line:
Tools/ffmpeg/ffmpeg -benchmark -y -i Input/y4m/old_town_cross_2160p50.y4m -c:v libx264 -preset slower -b:v 15000k -an Output/x264/encoded/old_town_cross_2160p50slower15000k.mkv
ffmpeg version N-82227-gdb23fde Copyright (c) 2000-2016 the FFmpeg developers
  built with gcc 5.4.0 (Ubuntu 5.4.0-6ubuntu1~16.04.2) 20160609
  configuration: --prefix=/home/jaroslav/ffmpeg_build --pkg-config-flags=--static --extra-cflags=-I/home/jaroslav/ffmpeg_build/include --extra-ldflags=-L/home/jaroslav/ffmpeg_build/lib --bindir=/home/jaroslav/bin --enable-gpl --enable-libass --enable-libfdk-aac --enable-libfreetype --enable-libmp3lame --enable-libopus --enable-libtheora --enable-libvorbis --enable-libvpx --enable-libx264 --enable-libx265 --enable-nvenc --enable-libmfx --enable-libxvid --enable-libgsm --enable-libopencore-amrnb --enable-version3 --enable-nonfree
  libavutil      55. 35.100 / 55. 35.100
  libavcodec     57. 66.101 / 57. 66.101
  libavformat    57. 57.100 / 57. 57.100
  libavdevice    57.  2.100 / 57.  2.100
  libavfilter     6. 66.100 /  6. 66.100
  libswscale      4.  3.100 /  4.  3.100
  libswresample   2.  4.100 /  2.  4.100
  libpostproc    54.  2.100 / 54.  2.100
Input #0, yuv4mpegpipe, from 'Input/y4m/old_town_cross_2160p50.y4m':
  Duration: 00:00:10.00, start: 0.000000, bitrate: 4976642 kb/s
    Stream #0:0: Video: rawvideo (I420 / 0x30323449), yuv420p(progressive), 3840x2160, SAR 1:1 DAR 16:9, 50 fps, 50 tbr, 50 tbn, 50 tbc
[libx264 @ 0x2dd0120] using SAR=1/1
[libx264 @ 0x2dd0120] DPB size (8 frames, 259200 mbs) > level limit (5 frames, 184320 mbs)
[libx264 @ 0x2dd0120] using cpu capabilities: MMX2 SSE2Fast SSSE3 SSE4.2 AVX FMA3 AVX2 LZCNT BMI2
[libx264 @ 0x2dd0120] profile High, level 5.2
[libx264 @ 0x2dd0120] 264 - core 148 - H.264/MPEG-4 AVC codec - Copyleft 2003-2016 - http://www.videolan.org/x264.html - options: cabac=1 ref=8 deblock=1:0:0 analyse=0x3:0x133 me=umh subme=9 psy=1 psy_rd=1.00:0.00 mixed_ref=1 me_range=16 chroma_me=1 trellis=2 8x8dct=1 cqm=0 deadzone=21,11 fast_pskip=1 chroma_qp_offset=-2 threads=6 lookahead_threads=1 sliced_threads=0 nr=0 decimate=1 interlaced=0 bluray_compat=0 constrained_intra=0 bframes=3 b_pyramid=2 b_adapt=2 b_bias=0 direct=3 weightb=1 open_gop=0 weightp=2 keyint=250 keyint_min=25 scenecut=40 intra_refresh=0 rc_lookahead=60 rc=abr mbtree=1 bitrate=15000 ratetol=1.0 qcomp=0.60 qpmin=0 qpmax=69 qpstep=4 ip_ratio=1.40 aq=1:1.00
Output #0, matroska, to 'Output/x264/encoded/old_town_cross_2160p50slower15000k.mkv':
  Metadata:
    encoder         : Lavf57.57.100
    Stream #0:0: Video: h264 (libx264) (H264 / 0x34363248), yuv420p, 3840x2160 [SAR 1:1 DAR 16:9], q=-1--1, 15000 kb/s, 50 fps, 1k tbn, 50 tbc
    Metadata:
      encoder         : Lavc57.66.101 libx264
    Side data:
      cpb: bitrate max/min/avg: 0/0/15000000 buffer size: 0 vbv_delay: -1
Stream mapping:
  Stream #0:0 -> #0:0 (rawvideo (native) -> h264 (libx264))
Press [q] to stop, [?] for help
frame=   63 fps=0.0 q=0.0 size=       0kB time=00:00:00.00 bitrate=N/A speed=   0x    frame=   67 fps= 17 q=0.0 size=       0kB time=00:00:00.00 bitrate=N/A speed=   0x    frame=   72 fps= 12 q=30.0 size=       1kB time=-00:00:00.01 bitrate=N/A speed=N/A    frame=   73 fps=9.8 q=30.0 size=       1kB time=00:00:00.00 bitrate=5888.0kbits/s speed=0.000134x    frame=   74 fps=8.4 q=39.0 size=       1kB time=00:00:00.02 bitrate= 280.4kbits/s speed=0.00238x    frame=   77 fps=8.1 q=47.0 size=       1kB time=00:00:00.08 bitrate=  72.7kbits/s speed=0.00853x    frame=   79 fps=7.6 q=41.0 size=       1kB time=00:00:00.12 bitrate=  48.7kbits/s speed=0.0116x    frame=   81 fps=7.3 q=52.0 size=       1kB time=00:00:00.16 bitrate=  36.6kbits/s speed=0.0146x    frame=   85 fps=7.3 q=50.0 size=       1kB time=00:00:00.24 bitrate=  24.4kbits/s speed=0.0208x    frame=   88 fps=7.2 q=50.0 size=       1kB time=00:00:00.30 bitrate=  19.6kbits/s speed=0.0247x    frame=   94 fps=7.2 q=47.0 size=       1kB time=00:00:00.42 bitrate=  14.0kbits/s speed=0.0322x    frame=  100 fps=7.1 q=44.0 size=       1kB time=00:00:00.54 bitrate=  10.9kbits/s speed=0.0386x    frame=  103 fps=7.0 q=45.0 size=       1kB time=00:00:00.60 bitrate=   9.8kbits/s speed=0.041x    frame=  107 fps=7.0 q=44.0 size=       1kB time=00:00:00.68 bitrate=   8.6kbits/s speed=0.0443x    frame=  111 fps=6.9 q=42.0 size=       1kB time=00:00:00.76 bitrate=   7.7kbits/s speed=0.047x    frame=  115 fps=6.8 q=41.0 size=       1kB time=00:00:00.84 bitrate=   7.0kbits/s speed=0.0499x    frame=  118 fps=6.7 q=42.0 size=       1kB time=00:00:00.90 bitrate=   6.5kbits/s speed=0.0508x    frame=  122 fps=6.6 q=41.0 size=       1kB time=00:00:00.98 bitrate=   6.0kbits/s speed=0.053x    frame=  124 fps=6.5 q=40.0 size=       1kB time=00:00:01.02 bitrate=   5.8kbits/s speed=0.0534x    frame=  128 fps=6.5 q=40.0 size=       1kB time=00:00:01.10 bitrate=   5.3kbits/s speed=0.056x    frame=  130 fps=6.3 q=40.0 size=       1kB time=00:00:01.14 bitrate=   5.2kbits/s speed=0.0554x    frame=  134 fps=6.3 q=39.0 size=       1kB time=00:00:01.22 bitrate=   4.8kbits/s speed=0.0575x    frame=  136 fps=6.3 q=39.0 size=       1kB time=00:00:01.26 bitrate=   4.7kbits/s speed=0.058x    frame=  138 fps=6.1 q=39.0 size=       1kB time=00:00:01.30 bitrate=   4.5kbits/s speed=0.0578x    frame=  142 fps=6.1 q=38.0 size=       1kB time=00:00:01.38 bitrate=   4.3kbits/s speed=0.0593x    frame=  145 fps=6.0 q=38.0 size=       1kB time=00:00:01.44 bitrate=   4.1kbits/s speed=0.0599x    frame=  146 fps=5.9 q=38.0 size=       1kB time=00:00:01.46 bitrate=   4.0kbits/s speed=0.059x    frame=  150 fps=5.8 q=37.0 size=       1kB time=00:00:01.54 bitrate=   3.8kbits/s speed=0.0599x    frame=  154 fps=5.8 q=37.0 size=       1kB time=00:00:01.62 bitrate=   3.6kbits/s speed=0.0606x    frame=  158 fps=5.8 q=36.0 size=       1kB time=00:00:01.70 bitrate=   3.5kbits/s speed=0.062x    frame=  160 fps=5.7 q=37.0 size=       1kB time=00:00:01.74 bitrate=   3.4kbits/s speed=0.0619x    frame=  162 fps=5.6 q=36.0 size=       1kB time=00:00:01.78 bitrate=   3.3kbits/s speed=0.0613x    frame=  166 fps=5.6 q=36.0 size=       1kB time=00:00:01.86 bitrate=   3.2kbits/s speed=0.0624x    frame=  168 fps=5.5 q=36.0 size=       1kB time=00:00:01.90 bitrate=   3.1kbits/s speed=0.0625x    frame=  169 fps=5.5 q=36.0 size=       1kB time=00:00:01.92 bitrate=   3.1kbits/s speed=0.0621x    frame=  172 fps=5.5 q=36.0 size=       1kB time=00:00:01.98 bitrate=   3.0kbits/s speed=0.063x    frame=  174 fps=5.4 q=36.0 size=       1kB time=00:00:02.02 bitrate=   2.9kbits/s speed=0.0623x    frame=  177 fps=5.4 q=35.0 size=       1kB time=00:00:02.08 bitrate=   2.8kbits/s speed=0.063x    frame=  180 fps=5.2 q=35.0 size=       1kB time=00:00:02.14 bitrate=   2.8kbits/s speed=0.0622x    frame=  185 fps=5.3 q=35.0 size=       1kB time=00:00:02.24 bitrate=   2.6kbits/s speed=0.0639x    frame=  186 fps=5.2 q=35.0 size=       1kB time=00:00:02.26 bitrate=   2.6kbits/s speed=0.0628x    frame=  188 fps=5.1 q=35.0 size=       1kB time=00:00:02.30 bitrate=   2.6kbits/s speed=0.0627x    frame=  192 fps=5.1 q=34.0 size=       1kB time=00:00:02.38 bitrate=   2.5kbits/s speed=0.0634x    frame=  193 fps=5.1 q=35.0 size=       1kB time=00:00:02.40 bitrate=   2.5kbits/s speed=0.0629x    frame=  196 fps=5.0 q=34.0 size=       1kB time=00:00:02.46 bitrate=   2.4kbits/s speed=0.0634x    frame=  197 fps=5.0 q=34.0 size=       1kB time=00:00:02.48 bitrate=   2.4kbits/s speed=0.063x    frame=  199 fps=5.0 q=34.0 size=       1kB time=00:00:02.52 bitrate=   2.3kbits/s speed=0.0627x    frame=  203 fps=4.9 q=34.0 size=       1kB time=00:00:02.60 bitrate=   2.3kbits/s speed=0.0627x    frame=  206 fps=4.9 q=34.0 size=       1kB time=00:00:02.66 bitrate=   2.2kbits/s speed=0.0632x    frame=  208 fps=4.9 q=34.0 size=       1kB time=00:00:02.70 bitrate=   2.2kbits/s speed=0.0631x    frame=  209 fps=4.8 q=34.0 size=       1kB time=00:00:02.72 bitrate=   2.2kbits/s speed=0.0628x    frame=  212 fps=4.8 q=34.0 size=       1kB time=00:00:02.78 bitrate=   2.1kbits/s speed=0.0632x    frame=  213 fps=4.8 q=34.0 size=       1kB time=00:00:02.80 bitrate=   2.1kbits/s speed=0.0629x    frame=  214 fps=4.7 q=34.0 size=    5122kB time=00:00:02.82 bitrate=14873.7kbits/s speed=0.0622x    frame=  218 fps=4.7 q=34.0 size=    5122kB time=00:00:02.90 bitrate=14463.5kbits/s speed=0.0631x    frame=  220 fps=4.7 q=34.0 size=    5122kB time=00:00:02.94 bitrate=14266.8kbits/s speed=0.0625x    frame=  222 fps=4.7 q=34.0 size=    5122kB time=00:00:02.98 bitrate=14075.4kbits/s speed=0.0625x    frame=  224 fps=4.6 q=33.0 size=    5122kB time=00:00:03.02 bitrate=13889.0kbits/s speed=0.0626x    frame=  226 fps=4.6 q=34.0 size=    5122kB time=00:00:03.06 bitrate=13707.5kbits/s speed=0.0622x    frame=  230 fps=4.6 q=33.0 size=    5122kB time=00:00:03.14 bitrate=13358.4kbits/s speed=0.0623x    frame=  233 fps=4.5 q=33.0 size=    5122kB time=00:00:03.20 bitrate=13108.0kbits/s speed=0.0624x    frame=  235 fps=4.5 q=33.0 size=    5122kB time=00:00:03.24 bitrate=12946.2kbits/s speed=0.0623x    frame=  238 fps=4.5 q=33.0 size=    5122kB time=00:00:03.30 bitrate=12710.9kbits/s speed=0.0622x    frame=  241 fps=4.5 q=33.0 size=    5122kB time=00:00:03.36 bitrate=12484.0kbits/s speed=0.0625x    frame=  242 fps=4.4 q=33.0 size=    5122kB time=00:00:03.38 bitrate=12410.1kbits/s speed=0.062x    frame=  244 fps=4.4 q=33.0 size=    5122kB time=00:00:03.42 bitrate=12265.0kbits/s speed=0.0621x    frame=  247 fps=4.4 q=33.0 size=    5122kB time=00:00:03.48 bitrate=12053.6kbits/s speed=0.0623x    frame=  248 fps=4.4 q=33.0 size=    5122kB time=00:00:03.50 bitrate=11984.8kbits/s speed=0.062x    frame=  249 fps=4.4 q=33.0 size=    5122kB time=00:00:03.52 bitrate=11916.7kbits/s speed=0.0616x    frame=  251 fps=4.4 q=33.0 size=    5122kB time=00:00:03.56 bitrate=11782.8kbits/s speed=0.0618x    frame=  254 fps=4.4 q=33.0 size=    5122kB time=00:00:03.62 bitrate=11587.6kbits/s speed=0.0622x    frame=  255 fps=4.3 q=33.0 size=    5122kB time=00:00:03.64 bitrate=11523.9kbits/s speed=0.0619x    frame=  257 fps=4.3 q=33.0 size=    5122kB time=00:00:03.68 bitrate=11398.7kbits/s speed=0.0614x    frame=  261 fps=4.3 q=33.0 size=    5122kB time=00:00:03.76 bitrate=11156.3kbits/s speed=0.0617x    frame=  263 fps=4.3 q=33.0 size=    5122kB time=00:00:03.80 bitrate=11038.9kbits/s speed=0.0618x    frame=  265 fps=4.2 q=33.0 size=    5122kB time=00:00:03.84 bitrate=10923.9kbits/s speed=0.061x    frame=  269 fps=4.2 q=33.0 size=    5122kB time=00:00:03.92 bitrate=10701.0kbits/s speed=0.0616x    frame=  271 fps=4.2 q=33.0 size=    5122kB time=00:00:03.96 bitrate=10593.0kbits/s speed=0.0616x    frame=  273 fps=4.2 q=33.0 size=    5122kB time=00:00:04.00 bitrate=10487.1kbits/s speed=0.0608x    frame=  275 fps=4.1 q=33.0 size=    5122kB time=00:00:04.04 bitrate=10383.2kbits/s speed=0.0609x    frame=  278 fps=4.2 q=33.0 size=    5122kB time=00:00:04.10 bitrate=10231.3kbits/s speed=0.0613x    frame=  280 fps=4.1 q=33.0 size=    5122kB time=00:00:04.14 bitrate=10132.5kbits/s speed=0.0606x    frame=  284 fps=4.1 q=33.0 size=    5122kB time=00:00:04.22 bitrate=9940.5kbits/s speed=0.0613x    frame=  286 fps=4.1 q=33.0 size=    5122kB time=00:00:04.26 bitrate=9847.1kbits/s speed=0.0608x    frame=  287 fps=4.1 q=33.0 size=    5122kB time=00:00:04.28 bitrate=9801.1kbits/s speed=0.0605x    frame=  290 fps=4.1 q=33.0 size=    5122kB time=00:00:04.34 bitrate=9665.7kbits/s speed=0.0607x    frame=  293 fps=4.0 q=33.0 size=    5122kB time=00:00:04.40 bitrate=9533.9kbits/s speed=0.0605x    frame=  295 fps=4.0 q=33.0 size=    5122kB time=00:00:04.44 bitrate=9448.0kbits/s speed=0.0606x    frame=  296 fps=4.0 q=33.0 size=    5122kB time=00:00:04.46 bitrate=9405.7kbits/s speed=0.0602x    frame=  300 fps=4.0 q=33.0 size=    5122kB time=00:00:04.54 bitrate=9240.0kbits/s speed=0.0606x    frame=  302 fps=4.0 q=33.0 size=    5122kB time=00:00:04.58 bitrate=9159.3kbits/s speed=0.06x    frame=  306 fps=4.0 q=33.0 size=    5122kB time=00:00:04.66 bitrate=9002.1kbits/s speed=0.0604x    frame=  308 fps=3.9 q=33.0 size=    5122kB time=00:00:04.70 bitrate=8925.5kbits/s speed=0.0601x    frame=  310 fps=3.9 q=33.0 size=    5122kB time=00:00:04.74 bitrate=8850.2kbits/s speed=0.0602x    frame=  312 fps=3.9 q=33.0 size=    5122kB time=00:00:04.78 bitrate=8776.1kbits/s speed=0.0601x    frame=  314 fps=3.9 q=33.0 size=    5122kB time=00:00:04.82 bitrate=8703.3kbits/s speed=0.06x    frame=  316 fps=3.9 q=34.0 size=    5122kB time=00:00:04.86 bitrate=8631.7kbits/s speed=0.06x    frame=  317 fps=3.9 q=34.0 size=    5122kB time=00:00:04.88 bitrate=8596.3kbits/s speed=0.0598x    frame=  320 fps=3.9 q=34.0 size=    8701kB time=00:00:04.94 bitrate=14426.5kbits/s speed=0.0602x    frame=  321 fps=3.9 q=34.0 size=    8701kB time=00:00:04.96 bitrate=14368.3kbits/s speed=0.0598x    frame=  323 fps=3.9 q=34.0 size=    8701kB time=00:00:05.00 bitrate=14253.4kbits/s speed=0.0599x    frame=  327 fps=3.9 q=34.0 size=    8701kB time=00:00:05.08 bitrate=14029.0kbits/s speed=0.06x    frame=  329 fps=3.9 q=34.0 size=    8701kB time=00:00:05.12 bitrate=13919.4kbits/s speed=0.06x    frame=  330 fps=3.8 q=34.0 size=    8701kB time=00:00:05.14 bitrate=13865.3kbits/s speed=0.0599x    frame=  332 fps=3.8 q=34.0 size=    8701kB time=00:00:05.18 bitrate=13758.2kbits/s speed=0.0599x    frame=  334 fps=3.8 q=34.0 size=    8701kB time=00:00:05.22 bitrate=13652.8kbits/s speed=0.0595x    frame=  338 fps=3.8 q=34.0 size=    8701kB time=00:00:05.30 bitrate=13446.8kbits/s speed=0.0598x    frame=  340 fps=3.8 q=34.0 size=    8701kB time=00:00:05.34 bitrate=13346.1kbits/s speed=0.0598x    frame=  342 fps=3.8 q=34.0 size=    8701kB time=00:00:05.38 bitrate=13246.9kbits/s speed=0.0596x    frame=  343 fps=3.8 q=34.0 size=    8701kB time=00:00:05.40 bitrate=13197.8kbits/s speed=0.0594x    frame=  346 fps=3.8 q=34.0 size=    8701kB time=00:00:05.46 bitrate=13052.8kbits/s speed=0.0597x    frame=  348 fps=3.8 q=34.0 size=    8701kB time=00:00:05.50 bitrate=12957.9kbits/s speed=0.0595x    frame=  350 fps=3.7 q=34.0 size=    8701kB time=00:00:05.54 bitrate=12864.3kbits/s speed=0.0593x    frame=  353 fps=3.8 q=34.0 size=    8701kB time=00:00:05.60 bitrate=12726.5kbits/s speed=0.0596x    frame=  354 fps=3.7 q=34.0 size=    8701kB time=00:00:05.62 bitrate=12681.3kbits/s speed=0.0595x    frame=  356 fps=3.7 q=34.0 size=    8701kB time=00:00:05.66 bitrate=12591.7kbits/s speed=0.0592x    frame=  358 fps=3.7 q=34.0 size=    8701kB time=00:00:05.70 bitrate=12503.3kbits/s speed=0.0593x    frame=  360 fps=3.7 q=34.0 size=    8701kB time=00:00:05.74 bitrate=12416.2kbits/s speed=0.0594x    frame=  363 fps=3.7 q=34.0 size=    8701kB time=00:00:05.80 bitrate=12287.8kbits/s speed=0.0593x    frame=  364 fps=3.7 q=34.0 size=    8701kB time=00:00:05.82 bitrate=12245.5kbits/s speed=0.0592x    frame=  367 fps=3.7 q=34.0 size=    8701kB time=00:00:05.88 bitrate=12120.6kbits/s speed=0.0595x    frame=  368 fps=3.7 q=34.0 size=    8701kB time=00:00:05.90 bitrate=12079.5kbits/s speed=0.059x    frame=  372 fps=3.7 q=34.0 size=    8701kB time=00:00:05.98 bitrate=11918.0kbits/s speed=0.0593x    frame=  373 fps=3.7 q=34.0 size=    8701kB time=00:00:06.00 bitrate=11878.2kbits/s speed=0.0592x    frame=  374 fps=3.7 q=34.0 size=    8701kB time=00:00:06.02 bitrate=11838.8kbits/s speed=0.059x    frame=  378 fps=3.7 q=34.0 size=    8701kB time=00:00:06.10 bitrate=11683.6kbits/s speed=0.0591x    frame=  379 fps=3.7 q=34.0 size=    8701kB time=00:00:06.12 bitrate=11645.4kbits/s speed=0.059x    frame=  382 fps=3.7 q=34.0 size=    8701kB time=00:00:06.18 bitrate=11532.3kbits/s speed=0.0592x    frame=  383 fps=3.6 q=34.0 size=    8701kB time=00:00:06.20 bitrate=11495.1kbits/s speed=0.059x    frame=  386 fps=3.6 q=33.0 size=    8701kB time=00:00:06.26 bitrate=11385.0kbits/s speed=0.0591x    frame=  387 fps=3.6 q=33.0 size=    8701kB time=00:00:06.28 bitrate=11348.7kbits/s speed=0.0589x    frame=  390 fps=3.6 q=33.0 size=    8701kB time=00:00:06.34 bitrate=11241.3kbits/s speed=0.0591x    frame=  392 fps=3.6 q=33.0 size=    8701kB time=00:00:06.38 bitrate=11170.9kbits/s speed=0.0591x    frame=  394 fps=3.6 q=33.0 size=    8701kB time=00:00:06.42 bitrate=11101.3kbits/s speed=0.0589x    frame=  396 fps=3.6 q=33.0 size=    8701kB time=00:00:06.46 bitrate=11032.6kbits/s speed=0.0589x    frame=  400 fps=3.6 q=33.0 size=    8701kB time=00:00:06.54 bitrate=10897.6kbits/s speed=0.059x    frame=  402 fps=3.6 q=33.0 size=    8701kB time=00:00:06.58 bitrate=10831.4kbits/s speed=0.059x    frame=  403 fps=3.6 q=33.0 size=    8701kB time=00:00:06.60 bitrate=10798.6kbits/s speed=0.0589x    frame=  406 fps=3.6 q=33.0 size=    8701kB time=00:00:06.66 bitrate=10701.3kbits/s speed=0.0589x    frame=  409 fps=3.6 q=33.0 size=    8701kB time=00:00:06.72 bitrate=10605.8kbits/s speed=0.0592x    frame=  410 fps=3.6 q=33.0 size=    8701kB time=00:00:06.74 bitrate=10574.3kbits/s speed=0.0589x    frame=  412 fps=3.6 q=33.0 size=    8701kB time=00:00:06.78 bitrate=10511.9kbits/s speed=0.059x    frame=  413 fps=3.6 q=33.0 size=    8701kB time=00:00:06.80 bitrate=10481.0kbits/s speed=0.0589x    frame=  416 fps=3.6 q=33.0 size=    8701kB time=00:00:06.86 bitrate=10389.4kbits/s speed=0.0591x    frame=  417 fps=3.6 q=33.0 size=    8701kB time=00:00:06.88 bitrate=10359.2kbits/s speed=0.0589x    frame=  419 fps=3.6 q=33.0 size=    8701kB time=00:00:06.92 bitrate=10299.3kbits/s speed=0.0589x    frame=  421 fps=3.6 q=33.0 size=    8701kB time=00:00:06.96 bitrate=10240.1kbits/s speed=0.059x    frame=  424 fps=3.6 q=33.0 size=    8701kB time=00:00:07.02 bitrate=10152.6kbits/s speed=0.0592x    frame=  425 fps=3.6 q=33.0 size=    8701kB time=00:00:07.04 bitrate=10123.8kbits/s speed=0.0588x    frame=  428 fps=3.6 q=33.0 size=    8701kB time=00:00:07.10 bitrate=10038.2kbits/s speed=0.0591x    frame=  429 fps=3.5 q=33.0 size=    8701kB time=00:00:07.12 bitrate=10010.0kbits/s speed=0.0588x    frame=  433 fps=3.5 q=33.0 size=    8701kB time=00:00:07.20 bitrate=9898.8kbits/s speed=0.0588x    frame=  437 fps=3.5 q=33.0 size=    8701kB time=00:00:07.28 bitrate=9790.0kbits/s speed=0.0589x    frame=  439 fps=3.5 q=33.0 size=    8701kB time=00:00:07.32 bitrate=9736.6kbits/s speed=0.0589x    frame=  441 fps=3.5 q=33.0 size=    8701kB time=00:00:07.36 bitrate=9683.6kbits/s speed=0.0588x    frame=  443 fps=3.5 q=33.0 size=    8701kB time=00:00:07.40 bitrate=9631.3kbits/s speed=0.0588x    frame=  445 fps=3.5 q=33.0 size=    8701kB time=00:00:07.44 bitrate=9579.5kbits/s speed=0.0589x    frame=  448 fps=3.5 q=33.0 size=    8701kB time=00:00:07.50 bitrate=9502.9kbits/s speed=0.0586x    frame=  451 fps=3.5 q=33.0 size=    8701kB time=00:00:07.56 bitrate=9427.5kbits/s speed=0.0589x    frame=  453 fps=3.5 q=33.0 size=    8701kB time=00:00:07.60 bitrate=9377.9kbits/s speed=0.0589x    frame=  456 fps=3.5 q=33.0 size=    8701kB time=00:00:07.66 bitrate=9304.4kbits/s speed=0.0587x    frame=  459 fps=3.5 q=33.0 size=   13822kB time=00:00:07.72 bitrate=14665.2kbits/s speed=0.0589x    frame=  461 fps=3.5 q=33.0 size=   13822kB time=00:00:07.76 bitrate=14589.6kbits/s speed=0.0589x    frame=  462 fps=3.5 q=33.0 size=   13822kB time=00:00:07.78 bitrate=14552.1kbits/s speed=0.0585x    frame=  465 fps=3.5 q=33.0 size=   13822kB time=00:00:07.84 bitrate=14440.7kbits/s speed=0.0587x    frame=  467 fps=3.5 q=33.0 size=   13822kB time=00:00:07.88 bitrate=14367.4kbits/s speed=0.0588x    frame=  468 fps=3.5 q=33.0 size=   13822kB time=00:00:07.90 bitrate=14331.1kbits/s speed=0.0587x    frame=  470 fps=3.5 q=33.0 size=   13822kB time=00:00:07.94 bitrate=14258.9kbits/s speed=0.0586x    frame=  473 fps=3.5 q=33.0 size=   13822kB time=00:00:08.00 bitrate=14152.0kbits/s speed=0.0588x    frame=  474 fps=3.5 q=33.0 size=   13822kB time=00:00:08.02 bitrate=14116.7kbits/s speed=0.0587x    frame=  475 fps=3.5 q=33.0 size=   13822kB time=00:00:08.04 bitrate=14081.6kbits/s speed=0.0586x    frame=  478 fps=3.5 q=33.0 size=   13822kB time=00:00:08.10 bitrate=13977.3kbits/s speed=0.0586x    frame=  482 fps=3.4 q=33.0 size=   13822kB time=00:00:08.18 bitrate=13840.6kbits/s speed=0.0584x    frame=  486 fps=3.5 q=33.0 size=   13822kB time=00:00:08.26 bitrate=13706.5kbits/s speed=0.0587x    frame=  488 fps=3.4 q=33.0 size=   13822kB time=00:00:08.30 bitrate=13640.5kbits/s speed=0.0586x    frame=  490 fps=3.4 q=33.0 size=   13822kB time=00:00:08.34 bitrate=13575.1kbits/s speed=0.0585x    frame=  492 fps=3.4 q=33.0 size=   13822kB time=00:00:08.38 bitrate=13510.3kbits/s speed=0.0585x    frame=  495 fps=3.4 q=33.0 size=   13822kB time=00:00:08.44 bitrate=13414.3kbits/s speed=0.0586x    frame=  497 fps=3.4 q=33.0 size=   13822kB time=00:00:08.48 bitrate=13351.0kbits/s speed=0.0584x    frame=  499 fps=3.4 q=33.0 size=   13822kB time=00:00:08.52 bitrate=13288.3kbits/s speed=0.0584x    frame=  500 fps=3.0 q=-1.0 Lsize=   18307kB time=00:00:09.94 bitrate=15086.4kbits/s speed=0.0587x    
video:18303kB audio:0kB subtitle:0kB other streams:0kB global headers:0kB muxing overhead: 0.025307%
bench: utime=658.584s
bench: maxrss=2621344kB
[libx264 @ 0x2dd0120] frame I:3     Avg QP:28.21  size:804687
[libx264 @ 0x2dd0120] frame P:138   Avg QP:32.71  size: 68435
[libx264 @ 0x2dd0120] frame B:359   Avg QP:34.53  size: 19174
[libx264 @ 0x2dd0120] consecutive B-frames:  1.0%  2.0% 23.4% 73.6%
[libx264 @ 0x2dd0120] mb I  I16..4:  8.9% 86.9%  4.2%
[libx264 @ 0x2dd0120] mb P  I16..4:  0.1%  0.4%  0.0%  P16..4: 46.2%  3.0%  9.3%  0.0%  0.0%    skip:41.0%
[libx264 @ 0x2dd0120] mb B  I16..4:  0.0%  0.0%  0.0%  B16..8: 48.9%  0.3%  0.1%  direct: 0.3%  skip:50.3%  L0:48.9% L1:51.0% BI: 0.1%
[libx264 @ 0x2dd0120] final ratefactor: 25.45
[libx264 @ 0x2dd0120] 8x8 transform intra:83.6% inter:64.6%
[libx264 @ 0x2dd0120] direct mvs  spatial:99.2% temporal:0.8%
[libx264 @ 0x2dd0120] coded y,uvDC,uvAC intra: 95.9% 81.0% 67.3% inter: 4.9% 5.4% 0.1%
[libx264 @ 0x2dd0120] i16 v,h,dc,p: 27% 27% 26% 20%
[libx264 @ 0x2dd0120] i8 v,h,dc,ddl,ddr,vr,hd,vl,hu:  5%  7%  3% 14% 17% 14% 18% 10% 12%
[libx264 @ 0x2dd0120] i4 v,h,dc,ddl,ddr,vr,hd,vl,hu:  3%  4%  1% 13% 17% 14% 20% 12% 16%
[libx264 @ 0x2dd0120] i8c dc,h,v,p: 55% 20% 12% 12%
[libx264 @ 0x2dd0120] Weighted P-Frames: Y:0.7% UV:0.0%
[libx264 @ 0x2dd0120] ref P L0: 52.3% 15.9% 16.4%  4.0%  3.9%  3.0%  3.4%  1.2%  0.0%
[libx264 @ 0x2dd0120] ref B L0: 74.1%  9.7%  8.3%  2.8%  2.5%  1.8%  0.8%
[libx264 @ 0x2dd0120] ref B L1: 95.8%  4.2%
[libx264 @ 0x2dd0120] kb/s:14993.08
